# xmcd CD database file
#
# Track frame offsets:
#	150
#	13760
#	28135
#	42055
#	55500
#	83250
#	95937
#	107750
#	122172
#	137685
#	152857
#	171130
#	193670
#	208660
#
# Disc length: 2874 seconds
#
# Revision: 0
# Processed by: cddbd v1.5PL3 Copyright (c) Steve Scherf et al.
# Submitted via: CDex 1.51
#
DISCID=b70b380e
DTITLE=Count Basie - Count Basie
DYEAR=1900
DGENRE=Jazz
TTITLE0=Shoe Shine Boy
TTITLE1=Blu and Sentimental
TTITLE2=Jumpin' At The Woodside
TTITLE3=How Long, How Long Blues
TTITLE4=Cherokee
TTITLE5=Jive At Five
TTITLE6=Tickle-Toe
TTITLE7=9:20 Special
TTITLE8=Going' To Chicago Blues
TTITLE9=Rambo
TTITLE10=I Need To Be Bee'd With
TTITLE11=Shiny Stockings
TTITLE12=In The Evening When The Sun, When The Sun Goes Down
TTITLE13=One O'Clock Jump
EXTD=
EXTT0=
EXTT1=
EXTT2=
EXTT3=
EXTT4=
EXTT5=
EXTT6=
EXTT7=
EXTT8=
EXTT9=
EXTT10=
EXTT11=
EXTT12=
EXTT13=
PLAYORDER=
